<svg width="153" height="311" viewBox="0 0 153 311" fill="none" xmlns="http://www.w3.org/2000/svg">
<path d="M123.277 63.1999C123.092 68.5864 124.735 74.02 127.87 78.3994C131.01 82.7831 135.625 86.0869 140.789 87.6467C141.385 106.758 153.063 124.953 170.438 132.975C183.862 139.176 199.384 140.191 213.953 137.646V1.01819H207.872C207.872 1.01819 205.007 11.9582 181.795 13.9636C181.795 13.9636 185.093 61.4816 123.272 63.1999H123.277Z" fill="url(#paint0_linear_64_324)"/>
<path d="M130.842 62.7843C130.864 68.5864 134.321 74.2471 139.476 76.9167" stroke="#222221" stroke-width="0.46" stroke-miterlimit="10"/>
<path d="M0.0387169 -1.76717C0.103051 9.34422 6.78523 19.8171 16.0407 25.9834C25.2962 32.1498 36.7948 34.3395 47.9031 33.7481C49.0611 42.3613 55.9534 50.1217 64.2482 52.7442C72.543 55.3667 81.7171 53.9997 89.6945 50.5373C99.2845 60.5432 113.571 64.644 127.437 64.5498C141.548 64.4512 155.894 60.1918 166.689 51.1073C177.485 42.0228 184.283 27.8389 182.893 13.805C188.464 14.1393 193.744 12.828 198.728 10.3255C203.711 7.82298 208.459 3.17788 210.732 -1.91287L0.0344238 -1.76717H0.0387169Z" fill="url(#paint1_linear_64_324)"/>
<path d="M89.9647 50.2417C89.806 50.5588 89.3256 50.3488 89.0683 50.1045C82.4376 43.7797 79.0751 34.2024 80.2931 25.1221" stroke="#222221" stroke-width="0.46" stroke-miterlimit="10"/>
<path d="M103.917 24.428C105.898 18.7073 111.191 14.2679 117.169 13.3037C123.152 12.3438 129.569 14.9021 133.249 19.71C135.517 22.6796 136.765 26.5619 136.028 30.2257C135.294 33.8895 132.344 37.1677 128.647 37.7419C124.949 38.3161 120.884 35.6979 120.373 31.9955" stroke="#222221" stroke-width="0.46" stroke-miterlimit="10"/>
<path d="M100.674 49.7274C111.246 56.318 124.731 58.0449 136.624 54.3254" stroke="#222221" stroke-width="0.46" stroke-miterlimit="10"/>
<path d="M151.236 49.3032C163.811 43.7711 172.334 30.1358 171.789 16.419" stroke="#222221" stroke-width="0.46" stroke-miterlimit="10"/>
<path d="M45.3384 28.3146C46.8009 31.8284 50.3393 34.3823 54.135 34.6694" stroke="#222221" stroke-width="0.46" stroke-miterlimit="10"/>
<path d="M6.3692 -1.76715C6.78952 4.47631 9.2814 10.5655 13.3602 15.3177C17.4389 20.0657 23.0874 23.4509 29.2034 24.8136" stroke="#222221" stroke-width="0.46" stroke-miterlimit="10"/>
<path d="M69.8367 44.3196C69.974 44.4824 70.197 44.5296 70.4071 44.5638C74.7261 45.2623 79.2595 44.5467 83.1539 42.5541" stroke="#222221" stroke-width="0.46" stroke-miterlimit="10"/>
<path d="M45.5486 -1.89999C46.8695 1.5067 49.6445 4.22777 52.8526 5.9804C56.0607 7.73302 59.6935 8.59005 63.3262 9.02713C68.7474 9.67847 73.4952 9.42564 78.7063 7.81014C83.9216 6.19464 89.0383 2.69797 90.9383 -1.60861" stroke="#222221" stroke-width="0.46" stroke-miterlimit="10"/>
<path d="M136.062 2.96793C141.779 4.88767 146.737 8.99285 149.679 14.2507C152.626 19.5129 153.531 25.8763 152.176 31.7513" stroke="#222221" stroke-width="0.46" stroke-miterlimit="10"/>
<path d="M127.484 21.2783C123.864 18.3301 118.405 17.8759 114.347 20.1856C110.29 22.4953 107.897 27.419 108.587 32.0341C109.278 36.6492 113.013 40.6558 117.568 41.6756" stroke="#222221" stroke-width="0.46" stroke-miterlimit="10"/>
<path d="M27.475 -1.39435C28.8475 4.21491 33.5567 8.87287 39.1838 10.1841" stroke="#222221" stroke-width="0.46" stroke-miterlimit="10"/>
<defs>
<linearGradient id="paint0_linear_64_324" x1="210.093" y1="22.7182" x2="164.235" y2="108.78" gradientUnits="userSpaceOnUse">
<stop stop-color="#83A2FC"/>
<stop offset="0.16" stop-color="#7D99F7"/>
<stop offset="0.42" stop-color="#6F82E9"/>
<stop offset="0.74" stop-color="#575CD4"/>
<stop offset="1" stop-color="#4139C0"/>
</linearGradient>
<linearGradient id="paint1_linear_64_324" x1="0.0387128" y1="31.3185" x2="210.737" y2="31.3185" gradientUnits="userSpaceOnUse">
<stop stop-color="#3D3480"/>
<stop offset="1" stop-color="#4139C0"/>
</linearGradient>
</defs>
</svg>
